<?xml version="1.0" standalone="no"?>
<!DOCTYPE svg PUBLIC "-//W3C//DTD SVG 20010904//EN"
 "http://www.w3.org/TR/2001/REC-SVG-20010904/DTD/svg10.dtd">
<svg version="1.0" xmlns="http://www.w3.org/2000/svg"
 width="674.000000pt" height="158.000000pt" viewBox="0 0 674.000000 158.000000"
 preserveAspectRatio="xMidYMid meet">
<metadata>
Created by potrace 1.16, written by Peter Selinger 2001-2019
</metadata>
<g transform="translate(0.000000,158.000000) scale(0.100000,-0.100000)"
fill="#000000" stroke="none">
<path d="M94 1564 c-38 -13 -66 -39 -82 -77 -21 -48 -14 -92 25 -165 96 -177
429 -751 435 -752 13 0 106 150 113 181 8 36 -5 61 -147 294 -96 158 -178 305
-178 319 0 4 105 6 233 5 l232 -1 29 49 c70 117 87 146 84 148 -2 2 -163 5
-358 7 -238 2 -365 -1 -386 -8z"/>
<path d="M1265 1573 c-226 -3 -231 -4 -245 -26 -115 -181 -310 -530 -310 -555
0 -8 29 -12 95 -12 52 0 95 -4 95 -8 0 -21 -41 -126 -136 -348 -101 -237 -122
-294 -110 -294 18 0 116 128 269 350 59 85 132 191 164 235 81 114 163 246
163 262 0 10 -21 13 -90 13 -55 0 -90 4 -90 10 0 13 54 120 72 141 11 14 45
18 216 22 l203 6 -7 -22 c-10 -32 -110 -213 -254 -457 -191 -323 -500 -867
-500 -879 0 -7 38 -11 113 -11 l112 1 340 586 c187 322 366 629 397 682 34 57
60 114 64 139 9 61 -16 113 -69 143 -48 27 -77 28 -492 22z"/>
<path d="M3493 1059 c-101 -19 -207 -100 -244 -184 -41 -94 -47 -233 -13 -329
21 -59 88 -142 139 -172 155 -90 369 -64 483 61 67 73 87 134 87 265 0 92 -3
112 -26 161 -75 160 -237 236 -426 198z m162 -205 c40 -41 49 -66 49 -147 1
-141 -31 -191 -125 -191 -84 0 -119 53 -119 179 0 84 16 134 51 159 32 22 122
22 144 0z"/>
<path d="M2170 1043 c0 -5 52 -164 116 -355 l116 -348 117 0 118 0 117 347
c64 192 116 351 116 356 0 4 -54 7 -120 7 -89 0 -120 -3 -120 -12 0 -22 -104
-388 -110 -388 -3 0 -23 66 -44 148 -20 81 -44 171 -52 200 l-15 52 -120 0
c-65 0 -119 -3 -119 -7z"/>
<path d="M4350 695 l0 -355 270 0 270 0 0 100 0 100 -150 0 -150 0 0 255 0
255 -120 0 -120 0 0 -355z"/>
<path d="M5220 950 l0 -100 100 0 100 0 0 -255 0 -255 120 0 120 0 0 255 0
255 100 0 100 0 0 100 0 100 -320 0 -320 0 0 -100z"/>
<path d="M6498 794 c-3 -240 -4 -257 -22 -270 -17 -12 -51 -11 -66 3 -2 2 -6
33 -8 68 l-4 65 -103 0 -103 0 -6 -32 c-6 -35 6 -126 23 -170 19 -50 86 -106
148 -124 68 -20 176 -15 241 11 55 22 116 92 131 150 7 26 11 144 11 299 l0
256 -120 0 -119 0 -3 -256z"/>
</g>
</svg>
